<?xml version="1.0" encoding="utf-8"?>
<!-- Generator: Adobe Illustrator 22.1.0, SVG Export Plug-In . SVG Version: 6.00 Build 0)  -->
<svg version="1.1" id="Layer_1" xmlns="http://www.w3.org/2000/svg" xmlns:xlink="http://www.w3.org/1999/xlink" x="0px" y="0px"
	 viewBox="0 0 450 450" style="enable-background:new 0 0 450 450;" xml:space="preserve">
<style type="text/css">
	.st0{fill:#22D0B2;}
</style>
<g>
	<path class="st0" d="M380.9,217.1c-2.9,0.1-5.9,0.2-9,0.2c-42.4,0-90.7-26.2-113.6-40.3c6.4,17.1,21.2,48.4,49.3,64.6
		c22.6,13,46.1,20.5,64.6,20.5c0,0,0,0,0,0c11.3,0,19.5-3,22.5-8.2c3.6-6.2,0.7-17-7.6-29C385.2,222.3,383.1,219.7,380.9,217.1z"/>
	<path class="st0" d="M371.9,129c-40.2,0-87.2,25.8-109,39.2c21.8,13.5,68.8,39.2,109,39.2c45.8,0,73.2-14.7,73.2-39.2
		C445.1,143.7,417.7,129,371.9,129z"/>
	<path class="st0" d="M191.7,176.9c-22.9,14.1-71.2,40.3-113.6,40.3c-3.1,0-6.1-0.1-9-0.2c-2.2,2.6-4.3,5.2-6.1,7.8
		c-8.4,11.9-11.2,22.8-7.6,29c3,5.2,11.2,8.2,22.5,8.2c18.5,0,42-7.5,64.6-20.5C170.3,225.4,185.3,194.1,191.7,176.9z"/>
	<path class="st0" d="M187.1,168.2c-21.8-13.5-68.8-39.2-109-39.2c-45.8,0-73.2,14.7-73.2,39.2c0,24.6,27.4,39.2,73.2,39.2
		C118.3,207.4,165.3,181.7,187.1,168.2z"/>
	<path class="st0" d="M165,88c0,14.9,5.6,28.5,14.9,38.8c-4,6.4-6.5,13.8-7.3,21.7c15.1,8.1,26.4,15.5,30.6,18.4
		c1.2,0.3,1.9,0.5,1.9,0.5s-0.1,0.2-0.2,0.7c0.1,0.1,0.2,0.1,0.2,0.1s-0.1,0.1-0.3,0.2c-1.2,4.4-6.8,23.4-19.3,43.2h78.9
		c-12.5-19.8-18.1-38.8-19.3-43.2c-0.2-0.1-0.3-0.2-0.3-0.2s0.1-0.1,0.2-0.1c-0.1-0.4-0.2-0.7-0.2-0.7s0.7-0.2,1.9-0.5
		c3.9-2.6,13.6-9,26.8-16.4c-0.5-8.7-3.1-16.8-7.4-23.8c9.3-10.3,14.9-23.9,14.9-38.8c0-26.5-17.8-48.9-42.1-55.8
		c7.4-7.6,17.4-12.9,28.5-14.3c1,2.5,3.5,4.2,6.3,4.2c3.8,0,6.8-3,6.8-6.8c0-3.8-3.1-6.8-6.8-6.8c-3.1,0-5.8,2.1-6.5,5
		c-13.1,1.6-24.8,8.1-33.1,17.5c-3.6-0.7-7.3-1.1-11-1.1c-3.8,0-7.5,0.4-11,1.1c-8.3-9.4-20-15.9-33.1-17.5c-0.8-2.9-3.4-5-6.5-5
		c-3.8,0-6.8,3-6.8,6.8c0,3.8,3,6.8,6.8,6.8c2.8,0,5.3-1.7,6.3-4.2c11.1,1.4,21,6.6,28.5,14.3C182.8,39.1,165,61.4,165,88z"/>
	<path class="st0" d="M302.7,250c-0.2-0.1-0.5-0.3-0.7-0.4c0.6,2.5,1.1,5,1.6,7.5H142.5c0.3-1.7,0.6-3.3,1-4.9
		c-3.7,2-7.4,3.9-11.1,5.6c-1.2,7.4-1.9,15-1.9,22.7c0,88.6,85.8,158.8,89.5,161.8l3.1,2.5l3.1-2.5c3.7-2.9,89.5-73.2,89.5-161.8
		c0-8.4-0.8-16.7-2.2-24.8C309.8,254,306.3,252.1,302.7,250z M223,432c-6.2-5.5-21-19.1-36.4-38.4h72.7
		C244,412.9,229.2,426.6,223,432z M288.6,348.1H157.4c-6.9-14.1-12.4-29.4-15.2-45.5h161.6C301.1,318.7,295.6,334,288.6,348.1z"/>
</g>
</svg>
